# Blender 4.0.0
# www.blender.org
mtllib IntersectMesh.mtl
o CaptureMesh
v -49.999996 -49.999996 -100.000000
v 49.999996 -49.999996 -100.000000
v -49.999996 50.000000 -100.000000
v 49.999996 50.000000 -100.000000
v 0.000000 0.000000 0.000000
vn -0.0000 -0.0000 -1.0000
vn 0.8944 -0.0000 0.4472
vn -0.8944 -0.0000 0.4472
vn -0.0000 0.8944 0.4472
vn -0.0000 -0.8944 0.4472
vt 0.000000 0.000000
vt 0.000000 1.000000
vt 1.000000 1.000000
vt 1.000000 0.000000
vt 0.500000 0.500000
s 0
f 1/1/1 3/2/1 4/3/1 2/4/1
f 2/4/2 4/3/2 5/5/2
f 3/2/3 1/1/3 5/5/3
f 4/3/4 3/2/4 5/5/4
f 1/1/5 2/4/5 5/5/5
